<svg xmlns="http://www.w3.org/2000/svg" viewBox="0 0 345.75 16.21"><defs><style>.cls-1{fill:#c4d42b;}.cls-1,.cls-2{fill-rule:evenodd;}.cls-2{fill:#353c65;}</style></defs><title>Element 2</title><g id="Ebene_2" data-name="Ebene 2"><g id="Ebene_1-2" data-name="Ebene 1"><path class="cls-1" d="M186.38,15.9h-3.83L176.8.51H181l3.49,10L188,.51h4.2L186.38,15.9Zm14.86-3.78a6.06,6.06,0,1,1,6-6,6,6,0,0,1-6,6Zm-4.71,3.78V13.14h9.37V15.9Zm4.68-12.23a2.32,2.32,0,0,0-2.3,2.4,2.32,2.32,0,1,0,4.63,0,2.34,2.34,0,0,0-2.33-2.4ZM215.77,15.9h-3.9V.51h6.51a5.37,5.37,0,0,1,5.33,5.42,4.93,4.93,0,0,1-3.12,4.67L224,15.9h-4.76l-2.88-4.61h-.6V15.9Zm0-11.61V7.55h2.4a1.65,1.65,0,0,0,1.59-1.62,1.61,1.61,0,0,0-1.59-1.64ZM231.85,15.9H227.9L228.82.25l7.53,5.52L243.92.25l.92,15.65h-4l-.23-8.26-4.29,2.65-4.27-2.65-.23,8.26ZM255,0a6.08,6.08,0,0,1,4.43,2l-2.68,2.61a2.22,2.22,0,0,0-1.8-.9,2.36,2.36,0,0,0-2.33,2.56,2.3,2.3,0,0,0,2.31,2.56A2,2,0,0,0,256.72,8h-1.93V5.42h6.11a4,4,0,0,1,0,.49,6.08,6.08,0,0,1-6,6.19,5.72,5.72,0,0,1-6-6A6.06,6.06,0,0,1,255,0Zm-4.73,15.9V13.14h9.16V15.9Zm25.89,0H265.42V.51h10.71V4.32h-6.84v2h4.92v3.78h-4.92v2h6.84v3.8Zm14.78,0h-3.83L279.86.51h4.45c.44.92,4.2,9.51,4.73,10.43L293.73.51h4.43L290.91,15.9Zm18.3,0h-7.78V12.05h1.91V4.36h-1.91V.51h7.78V4.36h-1.92v7.69h1.92Zm8.57,0h-4.11V.21c.63.55,10.46,7.38,11.32,8V.51h4.08v15.7L317.78,8V15.9ZM339.8,0a6.1,6.1,0,0,1,4.43,2l-2.68,2.61a2.24,2.24,0,0,0-1.8-.9,2.36,2.36,0,0,0-2.33,2.56,2.3,2.3,0,0,0,2.31,2.56A2,2,0,0,0,341.55,8h-1.94V5.42h6.12a4,4,0,0,1,0,.49,6.08,6.08,0,0,1-6.05,6.19,5.73,5.73,0,0,1-6-6,6.07,6.07,0,0,1,6.1-6Zm-4.74,15.9V13.14h9.17V15.9Z"/><path class="cls-2" d="M5.89,16.14A6,6,0,0,1,0,11.47l3.65-.78a2.49,2.49,0,0,0,2.38,1.82,2,2,0,0,0,2.1-1.89L.07,7.55C0,7.25,0,6.69,0,6.21A6,6,0,0,1,6.07,0,6,6,0,0,1,12,4.73l-3.64.79a2.26,2.26,0,0,0-2.22-1.9A2.09,2.09,0,0,0,4,5.33l8,3.05a10.61,10.61,0,0,1,.14,1.75,5.94,5.94,0,0,1-6.18,6Zm18.87-.37h-4V4.18H15.16V.37h15.3V4.18h-5.7V15.77Zm20.6,0H34.65V.37H45.36V4.18H38.53v2h4.92V10H38.53v2h6.83v3.81Zm15.71,0H50.36V.37H61.07V4.18H54.24v2h4.91V10H54.24v2h6.83v3.81Zm9.11,0H66.07V.07c.62.55,10.46,7.39,11.31,8V.37h4.09v15.7L70.18,7.85v7.92Zm28-11.52a3.6,3.6,0,0,1-1.69,3.18A3.52,3.52,0,0,1,99,11.13a4.61,4.61,0,0,1-4.74,4.64H87.09V.37h7.16a4,4,0,0,1,4,3.88ZM90.88,9.67v2.38H93.6a1.19,1.19,0,0,0,0-2.38Zm0-5.59V6h2.47a.93.93,0,0,0,1-1,.94.94,0,0,0-1-1Zm16.93,11.69h-3.9V.37h6.51a5.37,5.37,0,0,1,5.33,5.42,4.93,4.93,0,0,1-3.11,4.67l3.41,5.31H111.3l-2.89-4.62h-.6v4.62Zm0-11.62V7.41h2.4a1.65,1.65,0,0,0,1.59-1.62,1.61,1.61,0,0,0-1.59-1.64Zm19.56,11.62h-7.78V11.91h1.92V4.22h-1.92V.37h7.78V4.22h-1.91v7.69h1.91Zm8.58,0h-4.11V.07c.62.55,10.46,7.39,11.31,8V.37h4.09v15.7L136,7.85v7.92Zm20.86,0h-3.95V.37h3.95V6.16h2.51C159.58,5.7,162,.9,162.19.37h4.87c-.44.64-3.88,7.16-4.16,7.66l4.41,7.74h-5.15L159.35,10h-2.54v5.75Z"/></g></g></svg>