<svg id="Ebene_1" data-name="Ebene 1" xmlns="http://www.w3.org/2000/svg" viewBox="0 0 345.74 16.21"><defs><style>.cls-1{fill:#9c0;}.cls-1,.cls-2{fill-rule:evenodd;}.cls-2{fill:#036;}</style></defs><title>Steenbrink_1zlg</title><g id="Ebene_1-2" data-name="Ebene 1-2"><path class="cls-1" d="M186.38,15.9h-3.83L176.8.51H181l3.49,10L188,.51h4.2Zm14.86-3.78a6.06,6.06,0,1,1,6-6.12v.12A6,6,0,0,1,201.24,12.12Zm-4.71,3.78V13.14h9.37V15.9Zm4.68-12.23A2.32,2.32,0,0,0,198.91,6v.06a2.32,2.32,0,1,0,4.63.3,1.5,1.5,0,0,0,0-.3,2.34,2.34,0,0,0-2.28-2.4ZM215.77,15.9h-3.9V.51h6.51a5.36,5.36,0,0,1,5.33,5.41h0a4.93,4.93,0,0,1-3.12,4.67L224,15.9h-4.76l-2.88-4.61h-.6V15.9Zm0-11.61V7.55h2.4a1.65,1.65,0,0,0,1.59-1.62,1.61,1.61,0,0,0-1.58-1.64h-2.41ZM231.85,15.9H227.9L228.82.25l7.53,5.52L243.92.25l.92,15.65h-4l-.23-8.26-4.29,2.65-4.27-2.65-.23,8.26ZM255,0a6.08,6.08,0,0,1,4.43,2l-2.68,2.61a2.23,2.23,0,0,0-1.8-.9,2.36,2.36,0,0,0-2.34,2.38,1.09,1.09,0,0,0,0,.18,2.31,2.31,0,0,0,2,2.55h.28A2,2,0,0,0,256.72,8h-1.93V5.42h6.11a4,4,0,0,1,0,.49,6.08,6.08,0,0,1-6,6.19h0a5.72,5.72,0,0,1-6-5.43,5.42,5.42,0,0,1,0-.57,6.06,6.06,0,0,1,6-6.1Zm-4.73,15.9V13.14h9.16V15.9Zm25.89,0H265.42V.51h10.71V4.32h-6.84v2h4.92V10.1h-4.92v2h6.84v3.8Zm14.78,0h-3.83L279.86.51h4.45c.44.92,4.2,9.51,4.73,10.43L293.73.51h4.43L290.91,15.9Zm18.3,0h-7.78V12.05h1.91V4.36h-1.91V.51h7.78V4.36h-1.92v7.69h1.92Zm8.57,0H313.7V.21c.63.55,10.46,7.38,11.32,8V.51h4.08v15.7L317.78,8v7.9ZM339.8,0a6.1,6.1,0,0,1,4.43,2l-2.68,2.61a2.23,2.23,0,0,0-1.8-.9,2.36,2.36,0,0,0-2.34,2.38,1.09,1.09,0,0,0,0,.18,2.31,2.31,0,0,0,2,2.55h.28A2,2,0,0,0,341.55,8h-1.94V5.42h6.12a4,4,0,0,1,0,.49,6.08,6.08,0,0,1-6,6.19h-.08a5.73,5.73,0,0,1-6-5.45,5,5,0,0,1,0-.55,6.06,6.06,0,0,1,6.1-6Zm-4.74,15.9V13.14h9.17V15.9Z" transform="translate(0 0)"/><path class="cls-2" d="M5.89,16.14A6,6,0,0,1,0,11.47l3.65-.78A2.49,2.49,0,0,0,6,12.51a2,2,0,0,0,2.1-1.89L.07,7.55A7.51,7.51,0,0,1,0,6.21,6,6,0,0,1,5.79,0h.28A6,6,0,0,1,12,4.73l-3.64.79a2.27,2.27,0,0,0-2.22-1.9A2.1,2.1,0,0,0,4,5.33l8,3.05a11.37,11.37,0,0,1,.14,1.75,5.93,5.93,0,0,1-5.87,6c-.11,0-.21,0-.31,0Zm18.87-.37h-4V4.18h-5.6V.37h15.3V4.18h-5.7Zm20.6,0H34.65V.37H45.36V4.18H38.53v2h4.92V10H38.53v2h6.83v3.77Zm15.71,0H50.36V.37H61.07V4.18H54.24v2h4.91V10H54.24v2h6.83v3.77Zm9.11,0H66.07V.07c.62.55,10.46,7.39,11.31,8V.37h4.09v15.7L70.18,7.85Zm28-11.52a3.59,3.59,0,0,1-1.69,3.18A3.53,3.53,0,0,1,99,11.13a4.6,4.6,0,0,1-4.58,4.64H87.09V.37h7.16a4,4,0,0,1,4,3.88Zm-7.3,5.42v2.38H93.6a1.19,1.19,0,0,0,0-2.38Zm0-5.59V6h2.47a.93.93,0,0,0,1-.85V5a.94.94,0,0,0-.88-1h-.12Zm16.93,11.69h-3.9V.37h6.51a5.36,5.36,0,0,1,5.33,5.41h0a4.93,4.93,0,0,1-3.11,4.67l3.41,5.31H111.3l-2.89-4.62h-.6Zm0-11.62V7.41h2.4a1.65,1.65,0,0,0,1.59-1.62,1.61,1.61,0,0,0-1.58-1.64h-2.41Zm19.56,11.62h-7.78V11.91h1.92V4.22h-1.92V.37h7.78V4.22h-1.91v7.69h1.91Zm8.58,0h-4.11V.07c.62.55,10.46,7.39,11.31,8V.37h4.09v15.7L136,7.85v7.92Zm20.86,0h-3.95V.37h3.95V6.16h2.51C159.58,5.7,162,.9,162.19.37h4.87c-.44.64-3.88,7.16-4.16,7.66l4.41,7.74h-5.15L159.35,10h-2.54v5.77Z" transform="translate(0 0)"/></g></svg>