<svg id="Ebene_1" data-name="Ebene 1" xmlns="http://www.w3.org/2000/svg" viewBox="0 0 168.92 39.75"><defs><style>.cls-1{fill:#9c0;}.cls-1,.cls-2{fill-rule:evenodd;}.cls-2{fill:#036;}</style></defs><title>Steenbrink_2zlg</title><g id="Ebene_1-2" data-name="Ebene 1-2"><path class="cls-1" d="M9.58,39.45H5.75L0,24.05H4.23L7.71,34l3.44-10h4.2Zm14.86-3.79a6.06,6.06,0,1,1,6-6.12v.12A6,6,0,0,1,24.44,35.66Zm-4.71,3.79V36.68H29.1v2.77Zm4.68-12.24a2.38,2.38,0,1,0,2.33,2.43v0a2.33,2.33,0,0,0-2.24-2.4ZM39,39.45H35.1V24.05h6.51a5.36,5.36,0,0,1,5.33,5.41h0a4.93,4.93,0,0,1-3.12,4.67l3.42,5.31H42.45l-2.88-4.62H39Zm0-11.62v3.26h2.4A1.66,1.66,0,0,0,43,29.47a1.61,1.61,0,0,0-1.58-1.64H39Zm16,11.62H51.1L52,23.79l7.53,5.52,7.57-5.52L68,39.45H64l-.23-8.27-4.29,2.66-4.27-2.66L55,39.45ZM78.17,23.54a6.08,6.08,0,0,1,4.43,2l-2.68,2.61a2.23,2.23,0,0,0-1.8-.9,2.36,2.36,0,0,0-2.34,2.38,1.09,1.09,0,0,0,0,.18,2.32,2.32,0,0,0,2,2.56h.27a2,2,0,0,0,1.82-.84H78V29h6.1a3.84,3.84,0,0,1,0,.48,6.1,6.1,0,0,1-6,6.19h0a5.72,5.72,0,0,1-6-5.42q0-.32,0-.63a6.06,6.06,0,0,1,6.07-6.05h0ZM73.44,39.45V36.68H82.6v2.77Zm25.89,0H88.62V24.05H99.33v3.81H92.49v2h4.92v3.78H92.49v2h6.84Zm14.78,0h-3.83l-7.22-15.4h4.45c.44.92,4.2,9.51,4.73,10.43l4.69-10.43h4.43Zm18.3,0h-7.78V35.59h1.91V27.9h-1.91V24.05h7.78V27.9h-1.92v7.69h1.92Zm8.57,0h-4.11V23.75c.63.55,10.46,7.39,11.32,8v-7.7h4.08v15.7L141,31.53v7.92Zm22-15.91a6.1,6.1,0,0,1,4.43,2l-2.68,2.61a2.23,2.23,0,0,0-1.8-.9,2.36,2.36,0,0,0-2.34,2.38,1.09,1.09,0,0,0,0,.18,2.32,2.32,0,0,0,2,2.56h.27a2,2,0,0,0,1.82-.84h-1.94V29h6.12a3.84,3.84,0,0,1,0,.48,6.08,6.08,0,0,1-6,6.19h0a5.73,5.73,0,0,1-6-5.44c0-.21,0-.41,0-.61A6.07,6.07,0,0,1,163,23.57h0Zm-4.74,15.91V36.68h9.17v2.77Z" transform="translate(0 0)"/><path class="cls-2" d="M7.19,16.14a6,6,0,0,1-5.84-4.67L5,10.69a2.47,2.47,0,0,0,2.38,1.82,2,2,0,0,0,2.1-1.89L1.37,7.55c0-.3-.07-.86-.07-1.34A6,6,0,0,1,7.09,0h.29a6,6,0,0,1,6,4.73l-3.65.79a2.25,2.25,0,0,0-2.21-1.9A2.1,2.1,0,0,0,5.25,5.33l8,3.05a11.37,11.37,0,0,1,.14,1.75,5.93,5.93,0,0,1-5.87,6c-.11,0-.21,0-.32,0Zm18.87-.37h-4V4.18h-5.6V.37h15.3V4.18h-5.7Zm20.61,0H36V.37H46.67V4.18H39.83v2h4.92V10H39.83v2h6.84v3.77Zm15.71,0H51.67V.37H62.38V4.18H55.54v2h4.92V10H55.54v2h6.84v3.77Zm9.11,0H67.38V.07c.62.55,10.45,7.39,11.31,8V.37h4.08v15.7L71.49,7.85Zm28-11.52a3.59,3.59,0,0,1-1.68,3.18,3.51,3.51,0,0,1,2.42,3.7,4.6,4.6,0,0,1-4.56,4.64H88.4V.37h7.15a4,4,0,0,1,4,3.88ZM92.18,9.67v2.38h2.73a1.19,1.19,0,0,0,0-2.38Zm0-5.58V6h2.47a.93.93,0,0,0,1-.85V5a.93.93,0,0,0-.85-1h-.15Zm16.94,11.68h-3.91V.37h6.51a5.38,5.38,0,0,1,5.34,5.42h0a4.93,4.93,0,0,1-3.12,4.66l3.42,5.31H112.6l-2.88-4.62h-.6Zm0-11.61V7.41h2.4a1.65,1.65,0,0,0,1.59-1.61,1.61,1.61,0,0,0-1.58-1.64h-2.41Zm19.56,11.61H120.9V11.91h1.92V4.23H120.9V.37h7.78V4.23h-1.92v7.68h1.92Zm8.58,0h-4.11V.07c.62.55,10.45,7.39,11.31,8V.37h4.08v15.7L137.26,7.85v7.92Zm20.85,0h-3.94V.37h3.94V6.16h2.52c.25-.46,2.68-5.26,2.86-5.79h4.87c-.44.65-3.87,7.16-4.15,7.66l4.41,7.74h-5.15L160.65,10h-2.54v5.77Z" transform="translate(0 0)"/></g></svg>